<svg width="942" height="221" viewBox="0 0 942 221" fill="none" xmlns="http://www.w3.org/2000/svg">
<path d="M85.76 118H62.72V81.52H30.72V118H7.68V28.4H30.72V63.6H62.72V28.4H85.76V118ZM117.18 118H92.22L126.14 28.4H151.74L185.66 118H160.7L154.94 102H122.94L117.18 118ZM128.7 85.36H149.18L138.94 55.28L128.7 85.36ZM258.675 116.72C239.646 118.427 223.859 119.28 211.315 119.28C202.952 119.28 196.808 117.317 192.883 113.392C188.958 109.467 186.995 103.323 186.995 94.96V54C186.995 45.04 189 38.5547 193.011 34.544C197.107 30.448 203.635 28.4 212.595 28.4H258.675V46.32H217.715C212.595 46.32 210.035 48.88 210.035 54V94.96C210.035 96.9227 210.59 98.5013 211.699 99.696C212.894 100.805 214.387 101.36 216.179 101.36C217.971 101.36 219.934 101.36 222.067 101.36C224.2 101.275 226.419 101.189 228.723 101.104C231.027 101.019 233.331 100.933 235.635 100.848C238.024 100.763 241.054 100.592 244.723 100.336C248.478 100.08 253.128 99.7813 258.675 99.44V116.72ZM291.97 118H268.93V28.4H291.97V63.6H303.49L323.458 28.4H347.778L322.69 72.56L347.65 118H323.33L303.49 81.52H291.97V118ZM432.23 68.08L414.31 100.08H396.39L378.47 68.08V118H355.43V28.4H379.75L405.35 75.76L430.95 28.4H455.27V118H432.23V68.08ZM541.72 118H470.68V28.4H541.72V46.32H493.72V63.6H531.48V81.52H493.72V100.08H541.72V118ZM622.97 118H551.93V28.4H622.97V46.32H574.97V63.6H612.73V81.52H574.97V100.08H622.97V118ZM676.7 118H653.66V46.32H626.78V28.4H703.58V46.32H676.7V118ZM754.795 118H708.715V100.08H720.235V46.32H708.715V28.4H754.795V46.32H743.275V100.08H754.795V118ZM844.385 118H820.065L789.345 64.24V118H766.305V28.4H790.625L821.345 82.16V28.4H844.385V118ZM936.605 116.08C916.637 118.213 898.29 119.28 881.565 119.28C873.202 119.28 867.058 117.317 863.133 113.392C859.208 109.467 857.245 103.323 857.245 94.96V54C857.245 45.04 859.25 38.5547 863.261 34.544C867.357 30.448 873.885 28.4 882.845 28.4H928.925V46.32H887.965C882.845 46.32 880.285 48.88 880.285 54V94.96C880.285 96.9227 880.84 98.5013 881.949 99.696C883.144 100.805 884.722 101.36 886.685 101.36C896.498 101.36 905.458 101.147 913.565 100.72V82.16H896.925V66.8H936.605V116.08Z" fill="#E1DAAC"/>
<path d="M85.76 118H62.72V81.52H30.72V118H7.68V28.4H30.72V63.6H62.72V28.4H85.76V118ZM117.18 118H92.22L126.14 28.4H151.74L185.66 118H160.7L154.94 102H122.94L117.18 118ZM128.7 85.36H149.18L138.94 55.28L128.7 85.36ZM258.675 116.72C239.646 118.427 223.859 119.28 211.315 119.28C202.952 119.28 196.808 117.317 192.883 113.392C188.958 109.467 186.995 103.323 186.995 94.96V54C186.995 45.04 189 38.5547 193.011 34.544C197.107 30.448 203.635 28.4 212.595 28.4H258.675V46.32H217.715C212.595 46.32 210.035 48.88 210.035 54V94.96C210.035 96.9227 210.59 98.5013 211.699 99.696C212.894 100.805 214.387 101.36 216.179 101.36C217.971 101.36 219.934 101.36 222.067 101.36C224.2 101.275 226.419 101.189 228.723 101.104C231.027 101.019 233.331 100.933 235.635 100.848C238.024 100.763 241.054 100.592 244.723 100.336C248.478 100.08 253.128 99.7813 258.675 99.44V116.72ZM291.97 118H268.93V28.4H291.97V63.6H303.49L323.458 28.4H347.778L322.69 72.56L347.65 118H323.33L303.49 81.52H291.97V118ZM432.23 68.08L414.31 100.08H396.39L378.47 68.08V118H355.43V28.4H379.75L405.35 75.76L430.95 28.4H455.27V118H432.23V68.08ZM541.72 118H470.68V28.4H541.72V46.32H493.72V63.6H531.48V81.52H493.72V100.08H541.72V118ZM622.97 118H551.93V28.4H622.97V46.32H574.97V63.6H612.73V81.52H574.97V100.08H622.97V118ZM676.7 118H653.66V46.32H626.78V28.4H703.58V46.32H676.7V118ZM754.795 118H708.715V100.08H720.235V46.32H708.715V28.4H754.795V46.32H743.275V100.08H754.795V118ZM844.385 118H820.065L789.345 64.24V118H766.305V28.4H790.625L821.345 82.16V28.4H844.385V118ZM936.605 116.08C916.637 118.213 898.29 119.28 881.565 119.28C873.202 119.28 867.058 117.317 863.133 113.392C859.208 109.467 857.245 103.323 857.245 94.96V54C857.245 45.04 859.25 38.5547 863.261 34.544C867.357 30.448 873.885 28.4 882.845 28.4H928.925V46.32H887.965C882.845 46.32 880.285 48.88 880.285 54V94.96C880.285 96.9227 880.84 98.5013 881.949 99.696C883.144 100.805 884.722 101.36 886.685 101.36C896.498 101.36 905.458 101.147 913.565 100.72V82.16H896.925V66.8H936.605V116.08Z" fill="#A444A6"/>
<path d="M85.76 118H62.72V81.52H30.72V118H7.68V28.4H30.72V63.6H62.72V28.4H85.76V118ZM117.18 118H92.22L126.14 28.4H151.74L185.66 118H160.7L154.94 102H122.94L117.18 118ZM128.7 85.36H149.18L138.94 55.28L128.7 85.36ZM258.675 116.72C239.646 118.427 223.859 119.28 211.315 119.28C202.952 119.28 196.808 117.317 192.883 113.392C188.958 109.467 186.995 103.323 186.995 94.96V54C186.995 45.04 189 38.5547 193.011 34.544C197.107 30.448 203.635 28.4 212.595 28.4H258.675V46.32H217.715C212.595 46.32 210.035 48.88 210.035 54V94.96C210.035 96.9227 210.59 98.5013 211.699 99.696C212.894 100.805 214.387 101.36 216.179 101.36C217.971 101.36 219.934 101.36 222.067 101.36C224.2 101.275 226.419 101.189 228.723 101.104C231.027 101.019 233.331 100.933 235.635 100.848C238.024 100.763 241.054 100.592 244.723 100.336C248.478 100.08 253.128 99.7813 258.675 99.44V116.72ZM291.97 118H268.93V28.4H291.97V63.6H303.49L323.458 28.4H347.778L322.69 72.56L347.65 118H323.33L303.49 81.52H291.97V118ZM432.23 68.08L414.31 100.08H396.39L378.47 68.08V118H355.43V28.4H379.75L405.35 75.76L430.95 28.4H455.27V118H432.23V68.08ZM541.72 118H470.68V28.4H541.72V46.32H493.72V63.6H531.48V81.52H493.72V100.08H541.72V118ZM622.97 118H551.93V28.4H622.97V46.32H574.97V63.6H612.73V81.52H574.97V100.08H622.97V118ZM676.7 118H653.66V46.32H626.78V28.4H703.58V46.32H676.7V118ZM754.795 118H708.715V100.08H720.235V46.32H708.715V28.4H754.795V46.32H743.275V100.08H754.795V118ZM844.385 118H820.065L789.345 64.24V118H766.305V28.4H790.625L821.345 82.16V28.4H844.385V118ZM936.605 116.08C916.637 118.213 898.29 119.28 881.565 119.28C873.202 119.28 867.058 117.317 863.133 113.392C859.208 109.467 857.245 103.323 857.245 94.96V54C857.245 45.04 859.25 38.5547 863.261 34.544C867.357 30.448 873.885 28.4 882.845 28.4H928.925V46.32H887.965C882.845 46.32 880.285 48.88 880.285 54V94.96C880.285 96.9227 880.84 98.5013 881.949 99.696C883.144 100.805 884.722 101.36 886.685 101.36C896.498 101.36 905.458 101.147 913.565 100.72V82.16H896.925V66.8H936.605V116.08Z" fill="url(#paint0_linear_178_517)" fill-opacity="0.3"/>
<path opacity="0.8" d="M424.2 168.4C424.2 172.367 422.52 175.797 419.16 178.69C418.133 179.577 417.013 180.463 415.8 181.35L400.75 192.2H424.2V202H386.4V188.7L411.6 170.5V167C411.6 164.2 410.2 162.8 407.4 162.8H387.8V153H410.2C415.1 153 418.647 154.12 420.84 156.36C423.08 158.553 424.2 162.1 424.2 167V168.4ZM457.789 166.3C457.789 163.5 456.389 162.1 453.589 162.1H445.889C443.089 162.1 441.689 163.5 441.689 166.3V188.7C441.689 191.5 443.089 192.9 445.889 192.9H453.589C456.389 192.9 457.789 191.5 457.789 188.7V166.3ZM470.389 188.7C470.389 193.6 469.269 197.17 467.029 199.41C464.836 201.603 461.289 202.7 456.389 202.7H443.089C438.189 202.7 434.619 201.603 432.379 199.41C430.186 197.17 429.089 193.6 429.089 188.7V166.3C429.089 161.4 430.186 157.853 432.379 155.66C434.619 153.42 438.189 152.3 443.089 152.3H456.389C461.289 152.3 464.836 153.42 467.029 155.66C469.269 157.853 470.389 161.4 470.389 166.3V188.7ZM512.384 168.4C512.384 172.367 510.704 175.797 507.344 178.69C506.317 179.577 505.197 180.463 503.984 181.35L488.934 192.2H512.384V202H474.584V188.7L499.784 170.5V167C499.784 164.2 498.384 162.8 495.584 162.8H475.984V153H498.384C503.284 153 506.83 154.12 509.024 156.36C511.264 158.553 512.384 162.1 512.384 167V168.4ZM541.773 202.7C533.979 202.7 525.346 202.233 515.873 201.3V191.85C526.186 192.55 533.886 192.9 538.973 192.9C540.046 192.9 540.886 192.597 541.493 191.99C542.146 191.337 542.473 190.473 542.473 189.4V186.6C542.473 183.8 541.073 182.4 538.273 182.4H523.573V172.6H536.873C539.673 172.6 541.073 171.2 541.073 168.4V167C541.073 164.2 539.673 162.8 536.873 162.8H516.573V153H540.373C544.946 153 548.306 154.05 550.453 156.15C552.599 158.203 553.673 161.353 553.673 165.6C553.673 168.4 553.019 170.687 551.713 172.46C550.453 174.187 548.773 175.4 546.673 176.1C550.453 177.127 553.019 179.647 554.373 183.66C554.839 185.107 555.073 186.787 555.073 188.7V189.4C555.073 193.973 553.999 197.333 551.853 199.48C549.706 201.627 546.346 202.7 541.773 202.7Z" fill="#E1DAAC"/>
<defs>
<linearGradient id="paint0_linear_178_517" x1="471" y1="0" x2="471" y2="154" gradientUnits="userSpaceOnUse">
<stop stop-color="#A444A6"/>
<stop offset="0.557292" stop-color="#E1DAAC"/>
<stop offset="0.854167" stop-color="#641483"/>
</linearGradient>
</defs>
</svg>
